<?xml version="1.0" encoding="UTF-8"?>
<svg width="256px" height="256px" viewBox="0 0 256 256" version="1.1" xmlns="http://www.w3.org/2000/svg" xmlns:xlink="http://www.w3.org/1999/xlink">
    <title>Token</title>
    <g stroke="none" stroke-width="1" fill="none" fill-rule="evenodd">
        <circle fill="#4F46E5" cx="128" cy="128" r="128"></circle>
        <path d="M85.3333333,64 L170.666667,64 C179.871333,64 187.333333,71.4619999 187.333333,80.6666667 L187.333333,175.333333 C187.333333,184.538 179.871333,192 170.666667,192 L85.3333333,192 C76.1286666,192 68.6666667,184.538 68.6666667,175.333333 L68.6666667,80.6666667 C68.6666667,71.4619999 76.1286666,64 85.3333333,64 Z M85.3333333,80.6666667 L85.3333333,175.333333 L170.666667,175.333333 L170.666667,80.6666667 L85.3333333,80.6666667 Z M102,97.3333333 L154,97.3333333 L154,114 L102,114 L102,97.3333333 Z M102,130.666667 L154,130.666667 L154,147.333333 L102,147.333333 L102,130.666667 Z" fill="#FFFFFF" fill-rule="nonzero"></path>
    </g>
</svg>
